<?xml version="1.0" encoding="utf-8"?>
<!-- Generator: Adobe Illustrator 28.2.0, SVG Export Plug-In . SVG Version: 6.00 Build 0)  -->
<svg version="1.1" id="Laag_1" xmlns="http://www.w3.org/2000/svg" xmlns:xlink="http://www.w3.org/1999/xlink" x="0px" y="0px"
	 viewBox="0 0 523 68" style="enable-background:new 0 0 523 68;" xml:space="preserve">
<style type="text/css">
	.st0{fill:#024D5E;}
	.st1{fill:#FF6F00;}
</style>
<path class="st0" d="M138.4,54.8V15.7h7.5v39.1L138.4,54.8L138.4,54.8z"/>
<path class="st0" d="M155.7,4.7h7.5v11h12.5v6.3h-12.5V44c0,2.9,0.9,4.3,5,4.3h7.5v6.5h-9.3c-7.1,0-10.8-2.8-10.8-9.2V4.7z"/>
<path class="st0" d="M390.7,4.7h7.5v11h12.5v6.3h-12.5V44c0,2.9,0.9,4.3,5,4.3h7.5v6.5h-9.3c-7.1,0-10.8-2.8-10.8-9.2V4.7z"/>
<path class="st0" d="M281.4,29.8v25h-7.5V30.7c0-6-2.7-9.2-7.3-9.2c-5,0-10,4.9-10,13v20.4h-7.4V31.5c0-6.6-2.7-10-7.3-10
	c-5,0-10,4.9-10,13v20.4h-7.5V15.7h7.4v7.7c2.7-5.2,6.7-8.7,12.5-8.7c5.8,0,9.7,3.8,11.1,8.9c2.7-5.2,8-8.9,14.1-8.9
	C277.2,14.7,281.4,20,281.4,29.8L281.4,29.8z"/>
<path class="st0" d="M291.1,54.8V15.7h7.5v39.1L291.1,54.8L291.1,54.8z"/>
<path class="st0" d="M342.1,29.9v24.9h-7.5V32.5c0-7.8-2.5-11-7.6-11c-5.5,0-11.2,5.2-11.2,13.7v19.6h-7.5V15.7h7.4v8
	c2.9-4.9,7.7-8.9,13.6-8.9C337.6,14.7,342.1,20.3,342.1,29.9z"/>
<path class="st0" d="M349.9,43.1h7.5c0.5,4.2,4.6,6.3,9.7,6.3c5.1,0,8-2.3,8-5.4c0-2-1.2-3.8-6-4.9l-6.6-1.5
	c-7.3-1.6-10.9-5.6-10.9-11c0-6.9,6.1-11.9,15-11.9c8.9,0,14.4,5,15.5,12h-7.5c-0.4-3.2-3.2-5.8-8.3-5.8c-5.1,0-7.4,2.3-7.4,5.2
	c0,2.4,1.5,3.9,5.9,4.8l6.7,1.3c7.4,1.5,10.9,5.8,10.9,11.3c0,7.1-5.9,12.3-15.4,12.3C357.4,55.7,350.7,50.3,349.9,43.1L349.9,43.1z
	"/>
<path class="st0" d="M521.9,35.9h-28.5c0.3,8.5,4.8,13.4,11.6,13.4c4.8,0,8-2.4,9.2-6.2h7.4c-1.5,7.1-7.4,12.7-16.7,12.7
	c-11.4,0-18.9-8.2-18.9-20.4s7.5-20.6,18.5-20.6c10.4,0,17.4,7.5,17.4,19.2C522,34.1,522,34.8,521.9,35.9z M494.2,29.6h19.7
	c-0.5-5.4-4.2-8.6-9.4-8.6S495.1,24.5,494.2,29.6z"/>
<path class="st0" d="M142.3,9.4c2.6,0,4.7-2.1,4.7-4.7c0-2.6-2.1-4.7-4.7-4.7c-2.6,0-4.7,2.1-4.7,4.7C137.6,7.3,139.7,9.4,142.3,9.4
	z"/>
<path class="st0" d="M294.9,9.4c2.6,0,4.7-2.1,4.7-4.7c0-2.6-2.1-4.7-4.7-4.7s-4.7,2.1-4.7,4.7C290.2,7.3,292.3,9.4,294.9,9.4z"/>
<path class="st0" d="M215,30.5c0-8.7-4.8-15.7-16-15.7c-10.6,0-16.3,6.5-17.1,12.7h7.7c0.3-2.8,3-6.3,9.2-6.3c5.6,0,9,3,9,9.4v1.2
	l-11.5,0.2c-9.1,0.2-14.8,3.9-14.8,12.1c0,7.4,5.6,11.9,13.1,11.9c6.4,0,10.8-2.8,13.2-6.9c0,3.3,2.7,5.9,5.9,5.9h1.2V30.5L215,30.5
	z M207.9,42.2c-2,4.5-6,7.3-11.4,7.3c-4.3,0-7.4-2.1-7.4-6s3-5.4,7.4-5.5l11.4-0.2V42.2L207.9,42.2z"/>
<path class="st0" d="M470.3,54.8V26.5c0-2.9,0.9-4.3,5-4.3h7.5v-6.5h-9.3c-7.1,0-10.8,2.8-10.8,9.2v30L470.3,54.8L470.3,54.8z"/>
<path class="st0" d="M435.9,14.7c-11.3,0-20.2,8.3-20.2,20.5c0,12.2,8.9,20.5,20.2,20.5c11.3,0,20.2-8.3,20.2-20.5
	C456.1,23,447.2,14.7,435.9,14.7z M435.9,49.3c-7.1,0-12.6-5.1-12.6-14.1c0-9,5.6-14.1,12.6-14.1c7,0,12.6,5.1,12.6,14.1
	C448.5,44.2,442.9,49.3,435.9,49.3z"/>
<path class="st0" d="M124.9,15.7c-2.6,6.9-7.8,20.4-12.8,31c-5-10.6-10.2-24-12.8-31h-7.9c2.4,6.5,9.8,26.2,16.5,39.1h8.4
	c6.7-12.9,14.1-32.6,16.5-39.1H124.9L124.9,15.7z"/>
<path class="st1" d="M56.3,0.2c-6.3-0.9-12.4,1.4-16.4,5.7l-3.6,3.6l-3.6-3.6c-4.1-4.3-10.1-6.6-16.4-5.7C5.8,1.7-1.3,11.3,0.2,21.7
	c0,0,1,7.7,7.7,19.3c6.7,11.6,12.5,19.3,14.9,21.5l0,0c7.4,7.4,19.3,7.4,26.7,0l0,0c2.4-2.2,8.2-9.9,14.9-21.5
	c6.7-11.6,7.7-19.3,7.7-19.3C73.7,11.3,66.6,1.7,56.3,0.2L56.3,0.2z M60.2,21.9C56,31.1,49,43.2,41.9,51.9c-1.3,1.7-3.4,2.7-5.7,2.7
	c-2.3,0-4.3-1.1-5.7-2.7l0,0c-7-8.7-14-20.8-18.3-30c-1.7-3.7-0.1-8.1,3.6-9.7c3.7-1.7,8.1-0.1,9.7,3.6c2.7,5.6,6.5,12.3,10.6,18.7
	c4.2-6.3,7.9-13.1,10.6-18.7c1.7-3.7,6-5.3,9.7-3.6C60.3,13.9,61.9,18.2,60.2,21.9L60.2,21.9z"/>
</svg>
